<mxfile host="Electron" modified="2024-03-12T07:31:14.220Z" agent="Mozilla/5.0 (Windows NT 10.0; Win64; x64) AppleWebKit/537.36 (KHTML, like Gecko) draw.io/23.1.5 Chrome/120.0.6099.109 Electron/28.1.0 Safari/537.36" etag="i3iK44DtYtTMNrAjCBlE" version="23.1.5" type="device">
  <diagram name="Страница — 1" id="Jxi1s44ipztUi5a33qf4">
    <mxGraphModel dx="2440" dy="906" grid="1" gridSize="10" guides="1" tooltips="1" connect="1" arrows="1" fold="1" page="1" pageScale="1" pageWidth="827" pageHeight="1169" math="0" shadow="0">
      <root>
        <mxCell id="0" />
        <mxCell id="1" parent="0" />
        <mxCell id="wPxb7HDzclvliI8okgLD-1" value="const int numVertices = 11" style="rounded=0;whiteSpace=wrap;html=1;" parent="1" vertex="1">
          <mxGeometry x="40" y="20" width="190" height="60" as="geometry" />
        </mxCell>
        <mxCell id="wPxb7HDzclvliI8okgLD-5" value="" style="edgeStyle=orthogonalEdgeStyle;rounded=0;orthogonalLoop=1;jettySize=auto;html=1;" parent="1" source="wPxb7HDzclvliI8okgLD-2" target="wPxb7HDzclvliI8okgLD-4" edge="1">
          <mxGeometry relative="1" as="geometry" />
        </mxCell>
        <mxCell id="wPxb7HDzclvliI8okgLD-2" value="floydWarshall(vector&amp;lt;vector&lt;br&gt;&amp;lt;double&amp;gt;&amp;gt;&amp;amp; graph, vector&amp;lt;vector&amp;lt;int&amp;gt;&amp;gt;&amp;amp; next)" style="shape=process;whiteSpace=wrap;html=1;backgroundOutline=1;" parent="1" vertex="1">
          <mxGeometry x="40" y="120" width="190" height="60" as="geometry" />
        </mxCell>
        <mxCell id="wPxb7HDzclvliI8okgLD-7" value="" style="edgeStyle=orthogonalEdgeStyle;rounded=0;orthogonalLoop=1;jettySize=auto;html=1;" parent="1" source="wPxb7HDzclvliI8okgLD-4" target="wPxb7HDzclvliI8okgLD-6" edge="1">
          <mxGeometry relative="1" as="geometry" />
        </mxCell>
        <mxCell id="wPxb7HDzclvliI8okgLD-13" style="edgeStyle=orthogonalEdgeStyle;rounded=0;orthogonalLoop=1;jettySize=auto;html=1;" parent="1" source="wPxb7HDzclvliI8okgLD-4" target="wPxb7HDzclvliI8okgLD-15" edge="1">
          <mxGeometry relative="1" as="geometry">
            <mxPoint x="170" y="560" as="targetPoint" />
            <Array as="points">
              <mxPoint x="270" y="250" />
            </Array>
          </mxGeometry>
        </mxCell>
        <mxCell id="wPxb7HDzclvliI8okgLD-4" value="int k = 0; k &amp;lt; numVertices; k++" style="shape=hexagon;perimeter=hexagonPerimeter2;whiteSpace=wrap;html=1;fixedSize=1;" parent="1" vertex="1">
          <mxGeometry x="75" y="210" width="120" height="80" as="geometry" />
        </mxCell>
        <mxCell id="wPxb7HDzclvliI8okgLD-9" value="" style="edgeStyle=orthogonalEdgeStyle;rounded=0;orthogonalLoop=1;jettySize=auto;html=1;" parent="1" source="wPxb7HDzclvliI8okgLD-6" target="wPxb7HDzclvliI8okgLD-8" edge="1">
          <mxGeometry relative="1" as="geometry" />
        </mxCell>
        <mxCell id="wPxb7HDzclvliI8okgLD-10" style="edgeStyle=orthogonalEdgeStyle;rounded=0;orthogonalLoop=1;jettySize=auto;html=1;entryX=0.5;entryY=0;entryDx=0;entryDy=0;" parent="1" source="wPxb7HDzclvliI8okgLD-6" target="wPxb7HDzclvliI8okgLD-4" edge="1">
          <mxGeometry relative="1" as="geometry">
            <Array as="points">
              <mxPoint x="55" y="360" />
              <mxPoint x="55" y="190" />
              <mxPoint x="135" y="190" />
            </Array>
          </mxGeometry>
        </mxCell>
        <mxCell id="wPxb7HDzclvliI8okgLD-6" value="int i = 0; i &amp;lt; numVertices; i++" style="shape=hexagon;perimeter=hexagonPerimeter2;whiteSpace=wrap;html=1;fixedSize=1;" parent="1" vertex="1">
          <mxGeometry x="75" y="320" width="120" height="80" as="geometry" />
        </mxCell>
        <mxCell id="wPxb7HDzclvliI8okgLD-8" value="int j = 0; j &amp;lt; numVertices; j++" style="shape=hexagon;perimeter=hexagonPerimeter2;whiteSpace=wrap;html=1;fixedSize=1;" parent="1" vertex="1">
          <mxGeometry x="75" y="430" width="120" height="80" as="geometry" />
        </mxCell>
        <mxCell id="wPxb7HDzclvliI8okgLD-11" style="edgeStyle=orthogonalEdgeStyle;rounded=0;orthogonalLoop=1;jettySize=auto;html=1;entryX=0.5;entryY=0;entryDx=0;entryDy=0;" parent="1" source="wPxb7HDzclvliI8okgLD-8" target="wPxb7HDzclvliI8okgLD-6" edge="1">
          <mxGeometry relative="1" as="geometry">
            <Array as="points">
              <mxPoint x="20" y="480" />
              <mxPoint x="20" y="310" />
              <mxPoint x="135" y="310" />
            </Array>
          </mxGeometry>
        </mxCell>
        <mxCell id="wPxb7HDzclvliI8okgLD-17" value="" style="edgeStyle=orthogonalEdgeStyle;rounded=0;orthogonalLoop=1;jettySize=auto;html=1;" parent="1" source="wPxb7HDzclvliI8okgLD-15" target="wPxb7HDzclvliI8okgLD-16" edge="1">
          <mxGeometry relative="1" as="geometry" />
        </mxCell>
        <mxCell id="wPxb7HDzclvliI8okgLD-15" value="&lt;br&gt;перевірка трьох умов&amp;nbsp;&lt;br&gt;if" style="rhombus;whiteSpace=wrap;html=1;" parent="1" vertex="1">
          <mxGeometry x="68.75" y="530" width="132.5" height="100" as="geometry" />
        </mxCell>
        <mxCell id="wPxb7HDzclvliI8okgLD-19" value="" style="edgeStyle=orthogonalEdgeStyle;rounded=0;orthogonalLoop=1;jettySize=auto;html=1;" parent="1" source="wPxb7HDzclvliI8okgLD-16" target="wPxb7HDzclvliI8okgLD-18" edge="1">
          <mxGeometry relative="1" as="geometry" />
        </mxCell>
        <mxCell id="wPxb7HDzclvliI8okgLD-16" value="graph[i][k] != -1" style="whiteSpace=wrap;html=1;" parent="1" vertex="1">
          <mxGeometry x="75" y="650" width="120" height="60" as="geometry" />
        </mxCell>
        <mxCell id="wPxb7HDzclvliI8okgLD-21" value="" style="edgeStyle=orthogonalEdgeStyle;rounded=0;orthogonalLoop=1;jettySize=auto;html=1;" parent="1" source="wPxb7HDzclvliI8okgLD-18" target="wPxb7HDzclvliI8okgLD-20" edge="1">
          <mxGeometry relative="1" as="geometry" />
        </mxCell>
        <mxCell id="wPxb7HDzclvliI8okgLD-18" value="graph[k][j] != -1" style="whiteSpace=wrap;html=1;" parent="1" vertex="1">
          <mxGeometry x="75" y="740" width="120" height="60" as="geometry" />
        </mxCell>
        <mxCell id="wPxb7HDzclvliI8okgLD-23" value="" style="edgeStyle=orthogonalEdgeStyle;rounded=0;orthogonalLoop=1;jettySize=auto;html=1;" parent="1" source="wPxb7HDzclvliI8okgLD-20" target="wPxb7HDzclvliI8okgLD-22" edge="1">
          <mxGeometry relative="1" as="geometry" />
        </mxCell>
        <mxCell id="wPxb7HDzclvliI8okgLD-20" value="graph[i][j] == -1 || graph[i][k] + graph[k][j] &lt; graph[i][j]" style="whiteSpace=wrap;html=1;" parent="1" vertex="1">
          <mxGeometry x="75" y="830" width="120" height="60" as="geometry" />
        </mxCell>
        <mxCell id="wPxb7HDzclvliI8okgLD-25" value="" style="edgeStyle=orthogonalEdgeStyle;rounded=0;orthogonalLoop=1;jettySize=auto;html=1;" parent="1" source="wPxb7HDzclvliI8okgLD-22" target="wPxb7HDzclvliI8okgLD-24" edge="1">
          <mxGeometry relative="1" as="geometry" />
        </mxCell>
        <mxCell id="wPxb7HDzclvliI8okgLD-22" value="graph[i][j] = graph[i][k] + graph[k][j]" style="whiteSpace=wrap;html=1;" parent="1" vertex="1">
          <mxGeometry x="75" y="920" width="120" height="60" as="geometry" />
        </mxCell>
        <mxCell id="wPxb7HDzclvliI8okgLD-27" value="" style="edgeStyle=orthogonalEdgeStyle;rounded=0;orthogonalLoop=1;jettySize=auto;html=1;" parent="1" source="wPxb7HDzclvliI8okgLD-24" target="wPxb7HDzclvliI8okgLD-26" edge="1">
          <mxGeometry relative="1" as="geometry" />
        </mxCell>
        <mxCell id="wPxb7HDzclvliI8okgLD-24" value="next[i][j] = k" style="whiteSpace=wrap;html=1;" parent="1" vertex="1">
          <mxGeometry x="75" y="1010" width="120" height="60" as="geometry" />
        </mxCell>
        <mxCell id="wPxb7HDzclvliI8okgLD-26" value="outResult" style="shape=process;whiteSpace=wrap;html=1;backgroundOutline=1;" parent="1" vertex="1">
          <mxGeometry x="75" y="1100" width="120" height="60" as="geometry" />
        </mxCell>
        <mxCell id="wPxb7HDzclvliI8okgLD-30" value="" style="edgeStyle=orthogonalEdgeStyle;rounded=0;orthogonalLoop=1;jettySize=auto;html=1;" parent="1" source="wPxb7HDzclvliI8okgLD-28" target="wPxb7HDzclvliI8okgLD-29" edge="1">
          <mxGeometry relative="1" as="geometry" />
        </mxCell>
        <mxCell id="wPxb7HDzclvliI8okgLD-28" value="Початок" style="rounded=1;whiteSpace=wrap;html=1;arcSize=33;" parent="1" vertex="1">
          <mxGeometry x="320" y="20" width="120" height="60" as="geometry" />
        </mxCell>
        <mxCell id="wPxb7HDzclvliI8okgLD-32" value="" style="edgeStyle=orthogonalEdgeStyle;rounded=0;orthogonalLoop=1;jettySize=auto;html=1;" parent="1" source="wPxb7HDzclvliI8okgLD-29" target="wPxb7HDzclvliI8okgLD-31" edge="1">
          <mxGeometry relative="1" as="geometry" />
        </mxCell>
        <mxCell id="wPxb7HDzclvliI8okgLD-29" value="vector&amp;lt;vector&amp;lt;double&lt;br&gt;&amp;gt;&amp;gt; graph" style="whiteSpace=wrap;html=1;rounded=1;arcSize=0;" parent="1" vertex="1">
          <mxGeometry x="320" y="110" width="120" height="60" as="geometry" />
        </mxCell>
        <mxCell id="wPxb7HDzclvliI8okgLD-34" value="" style="edgeStyle=orthogonalEdgeStyle;rounded=0;orthogonalLoop=1;jettySize=auto;html=1;" parent="1" source="wPxb7HDzclvliI8okgLD-31" target="wPxb7HDzclvliI8okgLD-33" edge="1">
          <mxGeometry relative="1" as="geometry" />
        </mxCell>
        <mxCell id="wPxb7HDzclvliI8okgLD-31" value="vector&amp;lt;vector&amp;lt;int&amp;gt;&amp;gt; next(numVertices, vector&amp;lt;int&amp;gt;(numVertices, -1))" style="whiteSpace=wrap;html=1;rounded=1;arcSize=0;" parent="1" vertex="1">
          <mxGeometry x="320" y="200" width="120" height="60" as="geometry" />
        </mxCell>
        <mxCell id="wPxb7HDzclvliI8okgLD-36" value="" style="edgeStyle=orthogonalEdgeStyle;rounded=0;orthogonalLoop=1;jettySize=auto;html=1;" parent="1" source="wPxb7HDzclvliI8okgLD-33" target="wPxb7HDzclvliI8okgLD-35" edge="1">
          <mxGeometry relative="1" as="geometry" />
        </mxCell>
        <mxCell id="wPxb7HDzclvliI8okgLD-33" value="&amp;nbsp;floydWarshall&lt;br&gt;(graph, next)" style="shape=process;whiteSpace=wrap;html=1;backgroundOutline=1;rounded=1;arcSize=0;" parent="1" vertex="1">
          <mxGeometry x="320" y="290" width="120" height="60" as="geometry" />
        </mxCell>
        <mxCell id="wPxb7HDzclvliI8okgLD-38" value="" style="edgeStyle=orthogonalEdgeStyle;rounded=0;orthogonalLoop=1;jettySize=auto;html=1;" parent="1" source="wPxb7HDzclvliI8okgLD-35" target="wPxb7HDzclvliI8okgLD-37" edge="1">
          <mxGeometry relative="1" as="geometry" />
        </mxCell>
        <mxCell id="wPxb7HDzclvliI8okgLD-35" value="cout &amp;lt;&amp;lt; &quot;Мінімальні відстані &lt;br&gt;між вершинами:&quot;" style="shape=parallelogram;perimeter=parallelogramPerimeter;whiteSpace=wrap;html=1;fixedSize=1;rounded=1;arcSize=0;" parent="1" vertex="1">
          <mxGeometry x="310" y="380" width="140" height="60" as="geometry" />
        </mxCell>
        <mxCell id="wPxb7HDzclvliI8okgLD-40" value="" style="edgeStyle=orthogonalEdgeStyle;rounded=0;orthogonalLoop=1;jettySize=auto;html=1;" parent="1" source="wPxb7HDzclvliI8okgLD-37" target="wPxb7HDzclvliI8okgLD-39" edge="1">
          <mxGeometry relative="1" as="geometry" />
        </mxCell>
        <mxCell id="wPxb7HDzclvliI8okgLD-43" style="edgeStyle=orthogonalEdgeStyle;rounded=0;orthogonalLoop=1;jettySize=auto;html=1;exitX=1;exitY=0.5;exitDx=0;exitDy=0;entryX=0.5;entryY=0;entryDx=0;entryDy=0;" parent="1" source="wPxb7HDzclvliI8okgLD-37" target="wPxb7HDzclvliI8okgLD-42" edge="1">
          <mxGeometry relative="1" as="geometry">
            <Array as="points">
              <mxPoint x="460" y="500" />
              <mxPoint x="460" y="660" />
              <mxPoint x="380" y="660" />
            </Array>
          </mxGeometry>
        </mxCell>
        <mxCell id="wPxb7HDzclvliI8okgLD-37" value="(int i = 0; i &amp;lt; numVertices; i++)&amp;nbsp;" style="shape=hexagon;perimeter=hexagonPerimeter2;whiteSpace=wrap;html=1;fixedSize=1;rounded=1;arcSize=0;" parent="1" vertex="1">
          <mxGeometry x="320" y="460" width="120" height="80" as="geometry" />
        </mxCell>
        <mxCell id="wPxb7HDzclvliI8okgLD-41" style="edgeStyle=orthogonalEdgeStyle;rounded=0;orthogonalLoop=1;jettySize=auto;html=1;entryX=0.5;entryY=0;entryDx=0;entryDy=0;" parent="1" source="wPxb7HDzclvliI8okgLD-39" target="wPxb7HDzclvliI8okgLD-37" edge="1">
          <mxGeometry relative="1" as="geometry">
            <mxPoint x="380" y="450" as="targetPoint" />
            <Array as="points">
              <mxPoint x="280" y="600" />
              <mxPoint x="280" y="450" />
              <mxPoint x="380" y="450" />
            </Array>
          </mxGeometry>
        </mxCell>
        <mxCell id="wPxb7HDzclvliI8okgLD-39" value="int j = 0; j &lt; numVertices; j++" style="shape=hexagon;perimeter=hexagonPerimeter2;whiteSpace=wrap;html=1;fixedSize=1;rounded=1;arcSize=0;" parent="1" vertex="1">
          <mxGeometry x="320" y="560" width="120" height="80" as="geometry" />
        </mxCell>
        <mxCell id="wPxb7HDzclvliI8okgLD-45" value="" style="edgeStyle=orthogonalEdgeStyle;rounded=0;orthogonalLoop=1;jettySize=auto;html=1;" parent="1" source="wPxb7HDzclvliI8okgLD-42" target="wPxb7HDzclvliI8okgLD-44" edge="1">
          <mxGeometry relative="1" as="geometry" />
        </mxCell>
        <mxCell id="wPxb7HDzclvliI8okgLD-42" value="cout &amp;lt;&amp;lt; graph[i][j] &lt;br&gt;&amp;lt;&amp;lt; ;" style="shape=parallelogram;perimeter=parallelogramPerimeter;whiteSpace=wrap;html=1;fixedSize=1;" parent="1" vertex="1">
          <mxGeometry x="320" y="680" width="120" height="60" as="geometry" />
        </mxCell>
        <mxCell id="wPxb7HDzclvliI8okgLD-47" value="" style="edgeStyle=orthogonalEdgeStyle;rounded=0;orthogonalLoop=1;jettySize=auto;html=1;" parent="1" source="wPxb7HDzclvliI8okgLD-44" target="wPxb7HDzclvliI8okgLD-46" edge="1">
          <mxGeometry relative="1" as="geometry" />
        </mxCell>
        <mxCell id="wPxb7HDzclvliI8okgLD-44" value="cout &lt;&lt; endl;" style="shape=parallelogram;perimeter=parallelogramPerimeter;whiteSpace=wrap;html=1;fixedSize=1;" parent="1" vertex="1">
          <mxGeometry x="320" y="770" width="120" height="60" as="geometry" />
        </mxCell>
        <mxCell id="wPxb7HDzclvliI8okgLD-49" value="" style="edgeStyle=orthogonalEdgeStyle;rounded=0;orthogonalLoop=1;jettySize=auto;html=1;" parent="1" source="wPxb7HDzclvliI8okgLD-46" target="wPxb7HDzclvliI8okgLD-48" edge="1">
          <mxGeometry relative="1" as="geometry" />
        </mxCell>
        <mxCell id="wPxb7HDzclvliI8okgLD-46" value="int startVertex = 6;" style="whiteSpace=wrap;html=1;" parent="1" vertex="1">
          <mxGeometry x="320" y="860" width="120" height="60" as="geometry" />
        </mxCell>
        <mxCell id="wPxb7HDzclvliI8okgLD-51" value="" style="edgeStyle=orthogonalEdgeStyle;rounded=0;orthogonalLoop=1;jettySize=auto;html=1;" parent="1" source="wPxb7HDzclvliI8okgLD-48" target="wPxb7HDzclvliI8okgLD-50" edge="1">
          <mxGeometry relative="1" as="geometry" />
        </mxCell>
        <mxCell id="wPxb7HDzclvliI8okgLD-48" value="int price = 6;" style="whiteSpace=wrap;html=1;" parent="1" vertex="1">
          <mxGeometry x="320" y="950" width="120" height="60" as="geometry" />
        </mxCell>
        <mxCell id="wPxb7HDzclvliI8okgLD-53" value="" style="edgeStyle=orthogonalEdgeStyle;rounded=0;orthogonalLoop=1;jettySize=auto;html=1;" parent="1" source="wPxb7HDzclvliI8okgLD-50" target="wPxb7HDzclvliI8okgLD-52" edge="1">
          <mxGeometry relative="1" as="geometry" />
        </mxCell>
        <mxCell id="wPxb7HDzclvliI8okgLD-50" value="outResult(startVertex, graph, next, price);" style="shape=process;whiteSpace=wrap;html=1;backgroundOutline=1;" parent="1" vertex="1">
          <mxGeometry x="300" y="1040" width="160" height="70" as="geometry" />
        </mxCell>
        <mxCell id="wPxb7HDzclvliI8okgLD-55" value="" style="edgeStyle=orthogonalEdgeStyle;rounded=0;orthogonalLoop=1;jettySize=auto;html=1;" parent="1" source="wPxb7HDzclvliI8okgLD-52" target="wPxb7HDzclvliI8okgLD-54" edge="1">
          <mxGeometry relative="1" as="geometry" />
        </mxCell>
        <mxCell id="wPxb7HDzclvliI8okgLD-52" value="return 0;" style="shape=parallelogram;perimeter=parallelogramPerimeter;whiteSpace=wrap;html=1;fixedSize=1;" parent="1" vertex="1">
          <mxGeometry x="320" y="1140" width="120" height="60" as="geometry" />
        </mxCell>
        <mxCell id="wPxb7HDzclvliI8okgLD-54" value="Кінець" style="rounded=1;whiteSpace=wrap;html=1;" parent="1" vertex="1">
          <mxGeometry x="320" y="1240" width="120" height="60" as="geometry" />
        </mxCell>
        <mxCell id="wPxb7HDzclvliI8okgLD-58" value="" style="edgeStyle=orthogonalEdgeStyle;rounded=0;orthogonalLoop=1;jettySize=auto;html=1;" parent="1" source="wPxb7HDzclvliI8okgLD-56" target="wPxb7HDzclvliI8okgLD-57" edge="1">
          <mxGeometry relative="1" as="geometry" />
        </mxCell>
        <mxCell id="wPxb7HDzclvliI8okgLD-56" value="outResult" style="shape=process;whiteSpace=wrap;html=1;backgroundOutline=1;" parent="1" vertex="1">
          <mxGeometry x="604" y="110" width="140" height="60" as="geometry" />
        </mxCell>
        <mxCell id="wPxb7HDzclvliI8okgLD-60" value="" style="edgeStyle=orthogonalEdgeStyle;rounded=0;orthogonalLoop=1;jettySize=auto;html=1;" parent="1" source="wPxb7HDzclvliI8okgLD-57" target="wPxb7HDzclvliI8okgLD-59" edge="1">
          <mxGeometry relative="1" as="geometry" />
        </mxCell>
        <mxCell id="wPxb7HDzclvliI8okgLD-57" value="cout &amp;lt;&amp;lt;&amp;nbsp;startVertex&lt;br&gt;&amp;nbsp;&amp;lt;&amp;lt;;" style="shape=parallelogram;perimeter=parallelogramPerimeter;whiteSpace=wrap;html=1;fixedSize=1;" parent="1" vertex="1">
          <mxGeometry x="604" y="200" width="130" height="70" as="geometry" />
        </mxCell>
        <mxCell id="Znb4BWTXXF2_YyrvRS8r-35" value="" style="edgeStyle=orthogonalEdgeStyle;rounded=0;orthogonalLoop=1;jettySize=auto;html=1;" edge="1" parent="1" source="wPxb7HDzclvliI8okgLD-59" target="wPxb7HDzclvliI8okgLD-61">
          <mxGeometry relative="1" as="geometry" />
        </mxCell>
        <mxCell id="wPxb7HDzclvliI8okgLD-59" value="int j = 0; j &amp;lt; numVertices; j++" style="shape=hexagon;perimeter=hexagonPerimeter2;whiteSpace=wrap;html=1;fixedSize=1;" parent="1" vertex="1">
          <mxGeometry x="609" y="310" width="120" height="80" as="geometry" />
        </mxCell>
        <mxCell id="wPxb7HDzclvliI8okgLD-63" value="" style="edgeStyle=orthogonalEdgeStyle;rounded=0;orthogonalLoop=1;jettySize=auto;html=1;" parent="1" source="wPxb7HDzclvliI8okgLD-61" target="wPxb7HDzclvliI8okgLD-64" edge="1">
          <mxGeometry relative="1" as="geometry">
            <mxPoint x="669" y="520" as="targetPoint" />
          </mxGeometry>
        </mxCell>
        <mxCell id="wPxb7HDzclvliI8okgLD-61" value="if (j != startVertex)" style="rhombus;whiteSpace=wrap;html=1;" parent="1" vertex="1">
          <mxGeometry x="621.5" y="410" width="95" height="80" as="geometry" />
        </mxCell>
        <mxCell id="wPxb7HDzclvliI8okgLD-66" value="" style="edgeStyle=orthogonalEdgeStyle;rounded=0;orthogonalLoop=1;jettySize=auto;html=1;" parent="1" source="wPxb7HDzclvliI8okgLD-64" target="wPxb7HDzclvliI8okgLD-65" edge="1">
          <mxGeometry relative="1" as="geometry" />
        </mxCell>
        <mxCell id="wPxb7HDzclvliI8okgLD-64" value="cout &amp;lt;&amp;lt; startVertex +&lt;br&gt;&amp;nbsp;1 &amp;lt;&amp;lt; &quot; -&amp;gt; &quot; &amp;lt;&amp;lt;&lt;br&gt;&amp;nbsp;j + 1 &amp;lt;&amp;lt; &quot;: &quot;;" style="shape=parallelogram;perimeter=parallelogramPerimeter;whiteSpace=wrap;html=1;fixedSize=1;" parent="1" vertex="1">
          <mxGeometry x="602.75" y="525" width="132.5" height="60" as="geometry" />
        </mxCell>
        <mxCell id="wPxb7HDzclvliI8okgLD-68" value="" style="edgeStyle=orthogonalEdgeStyle;rounded=0;orthogonalLoop=1;jettySize=auto;html=1;" parent="1" source="wPxb7HDzclvliI8okgLD-65" target="wPxb7HDzclvliI8okgLD-67" edge="1">
          <mxGeometry relative="1" as="geometry" />
        </mxCell>
        <mxCell id="wPxb7HDzclvliI8okgLD-77" value="" style="edgeStyle=orthogonalEdgeStyle;rounded=0;orthogonalLoop=1;jettySize=auto;html=1;" parent="1" source="wPxb7HDzclvliI8okgLD-65" target="wPxb7HDzclvliI8okgLD-76" edge="1">
          <mxGeometry relative="1" as="geometry" />
        </mxCell>
        <mxCell id="wPxb7HDzclvliI8okgLD-65" value="if (graph&lt;br&gt;[startVertex][j] &lt;br&gt;!= -1)" style="rhombus;whiteSpace=wrap;html=1;" parent="1" vertex="1">
          <mxGeometry x="612" y="630" width="115" height="120" as="geometry" />
        </mxCell>
        <mxCell id="wPxb7HDzclvliI8okgLD-73" value="" style="edgeStyle=orthogonalEdgeStyle;rounded=0;orthogonalLoop=1;jettySize=auto;html=1;" parent="1" source="wPxb7HDzclvliI8okgLD-67" target="wPxb7HDzclvliI8okgLD-72" edge="1">
          <mxGeometry relative="1" as="geometry" />
        </mxCell>
        <mxCell id="wPxb7HDzclvliI8okgLD-67" value="cout &amp;lt;&amp;lt; &lt;br&gt;startVertex &lt;br&gt;+ 1 &amp;lt;&amp;lt; &quot; -&amp;gt;&quot;;" style="shape=parallelogram;perimeter=parallelogramPerimeter;whiteSpace=wrap;html=1;fixedSize=1;" parent="1" vertex="1">
          <mxGeometry x="744" y="760" width="120" height="60" as="geometry" />
        </mxCell>
        <mxCell id="wPxb7HDzclvliI8okgLD-69" value="так" style="text;html=1;align=center;verticalAlign=middle;resizable=0;points=[];autosize=1;strokeColor=none;fillColor=none;" parent="1" vertex="1">
          <mxGeometry x="744" y="668" width="40" height="30" as="geometry" />
        </mxCell>
        <mxCell id="wPxb7HDzclvliI8okgLD-72" value="printPath" style="shape=process;whiteSpace=wrap;html=1;backgroundOutline=1;" parent="1" vertex="1">
          <mxGeometry x="744" y="870" width="120" height="70" as="geometry" />
        </mxCell>
        <mxCell id="Znb4BWTXXF2_YyrvRS8r-37" style="edgeStyle=orthogonalEdgeStyle;rounded=0;orthogonalLoop=1;jettySize=auto;html=1;" edge="1" parent="1" source="wPxb7HDzclvliI8okgLD-76" target="wPxb7HDzclvliI8okgLD-79">
          <mxGeometry relative="1" as="geometry" />
        </mxCell>
        <mxCell id="wPxb7HDzclvliI8okgLD-76" value="cout &amp;lt;&amp;lt; &quot;Немає шляху&quot;;" style="shape=parallelogram;perimeter=parallelogramPerimeter;whiteSpace=wrap;html=1;fixedSize=1;" parent="1" vertex="1">
          <mxGeometry x="484" y="760" width="120" height="60" as="geometry" />
        </mxCell>
        <mxCell id="Znb4BWTXXF2_YyrvRS8r-38" style="edgeStyle=orthogonalEdgeStyle;rounded=0;orthogonalLoop=1;jettySize=auto;html=1;entryX=1;entryY=0.5;entryDx=0;entryDy=0;" edge="1" parent="1" source="wPxb7HDzclvliI8okgLD-79" target="wPxb7HDzclvliI8okgLD-59">
          <mxGeometry relative="1" as="geometry">
            <Array as="points">
              <mxPoint x="670" y="1090" />
              <mxPoint x="880" y="1090" />
              <mxPoint x="880" y="350" />
            </Array>
          </mxGeometry>
        </mxCell>
        <mxCell id="wPxb7HDzclvliI8okgLD-79" value="cout &amp;lt;&amp;lt;&amp;nbsp;graph&lt;br&gt;[startVertex][j]&amp;nbsp;&amp;lt;&amp;lt; graph[startVertex][j] * price;" style="shape=parallelogram;perimeter=parallelogramPerimeter;whiteSpace=wrap;html=1;fixedSize=1;" parent="1" vertex="1">
          <mxGeometry x="599.13" y="950" width="140.75" height="70" as="geometry" />
        </mxCell>
        <mxCell id="wPxb7HDzclvliI8okgLD-80" value="ні" style="text;html=1;align=center;verticalAlign=middle;resizable=0;points=[];autosize=1;strokeColor=none;fillColor=none;" parent="1" vertex="1">
          <mxGeometry x="555" y="668" width="30" height="30" as="geometry" />
        </mxCell>
        <mxCell id="Znb4BWTXXF2_YyrvRS8r-1" value="" style="shape=curlyBracket;whiteSpace=wrap;html=1;rounded=1;labelPosition=left;verticalLabelPosition=middle;align=right;verticalAlign=middle;" vertex="1" parent="1">
          <mxGeometry x="-30" y="300" width="20" height="100" as="geometry" />
        </mxCell>
        <mxCell id="Znb4BWTXXF2_YyrvRS8r-6" value="O(n)" style="text;html=1;align=center;verticalAlign=middle;resizable=0;points=[];autosize=1;strokeColor=none;fillColor=#FF7D7D;" vertex="1" parent="1">
          <mxGeometry x="-90" y="335" width="50" height="30" as="geometry" />
        </mxCell>
        <mxCell id="Znb4BWTXXF2_YyrvRS8r-7" value="" style="shape=curlyBracket;whiteSpace=wrap;html=1;rounded=1;labelPosition=left;verticalLabelPosition=middle;align=right;verticalAlign=middle;" vertex="1" parent="1">
          <mxGeometry x="-120" y="290" width="20" height="220" as="geometry" />
        </mxCell>
        <mxCell id="Znb4BWTXXF2_YyrvRS8r-8" value="O(n&lt;sup&gt;2&lt;/sup&gt;)" style="text;html=1;align=center;verticalAlign=middle;resizable=0;points=[];autosize=1;strokeColor=none;fillColor=#FF2119;" vertex="1" parent="1">
          <mxGeometry x="-175" y="385" width="50" height="30" as="geometry" />
        </mxCell>
        <mxCell id="Znb4BWTXXF2_YyrvRS8r-9" value="" style="shape=curlyBracket;whiteSpace=wrap;html=1;rounded=1;labelPosition=left;verticalLabelPosition=middle;align=right;verticalAlign=middle;" vertex="1" parent="1">
          <mxGeometry x="-200" y="200" width="20" height="310" as="geometry" />
        </mxCell>
        <mxCell id="Znb4BWTXXF2_YyrvRS8r-10" value="" style="shape=curlyBracket;whiteSpace=wrap;html=1;rounded=1;labelPosition=left;verticalLabelPosition=middle;align=right;verticalAlign=middle;" vertex="1" parent="1">
          <mxGeometry x="-30" y="400" width="20" height="100" as="geometry" />
        </mxCell>
        <mxCell id="Znb4BWTXXF2_YyrvRS8r-11" value="O(n)" style="text;html=1;align=center;verticalAlign=middle;resizable=0;points=[];autosize=1;strokeColor=none;fillColor=#FF7D7D;" vertex="1" parent="1">
          <mxGeometry x="-90" y="435" width="50" height="30" as="geometry" />
        </mxCell>
        <mxCell id="Znb4BWTXXF2_YyrvRS8r-12" value="" style="shape=curlyBracket;whiteSpace=wrap;html=1;rounded=1;labelPosition=left;verticalLabelPosition=middle;align=right;verticalAlign=middle;" vertex="1" parent="1">
          <mxGeometry x="-30" y="210" width="20" height="85" as="geometry" />
        </mxCell>
        <mxCell id="Znb4BWTXXF2_YyrvRS8r-13" value="O(n)" style="text;html=1;align=center;verticalAlign=middle;resizable=0;points=[];autosize=1;strokeColor=none;fillColor=#FF7D7D;" vertex="1" parent="1">
          <mxGeometry x="-90" y="235" width="50" height="30" as="geometry" />
        </mxCell>
        <mxCell id="Znb4BWTXXF2_YyrvRS8r-14" value="O(n&lt;sup&gt;3&lt;/sup&gt;" style="text;html=1;align=center;verticalAlign=middle;resizable=0;points=[];autosize=1;strokeColor=none;fillColor=#FF0000;" vertex="1" parent="1">
          <mxGeometry x="-260" y="340" width="50" height="30" as="geometry" />
        </mxCell>
        <mxCell id="Znb4BWTXXF2_YyrvRS8r-15" value="O(1)" style="text;html=1;align=center;verticalAlign=middle;resizable=0;points=[];autosize=1;strokeColor=none;fillColor=#FFB18A;" vertex="1" parent="1">
          <mxGeometry x="-80" y="565" width="50" height="30" as="geometry" />
        </mxCell>
        <mxCell id="Znb4BWTXXF2_YyrvRS8r-16" value="" style="shape=curlyBracket;whiteSpace=wrap;html=1;rounded=1;labelPosition=left;verticalLabelPosition=middle;align=right;verticalAlign=middle;" vertex="1" parent="1">
          <mxGeometry x="-20" y="520" width="20" height="120" as="geometry" />
        </mxCell>
        <mxCell id="Znb4BWTXXF2_YyrvRS8r-17" value="" style="shape=curlyBracket;whiteSpace=wrap;html=1;rounded=1;flipH=1;labelPosition=right;verticalLabelPosition=middle;align=left;verticalAlign=middle;" vertex="1" parent="1">
          <mxGeometry x="464" y="455" width="20" height="90" as="geometry" />
        </mxCell>
        <mxCell id="Znb4BWTXXF2_YyrvRS8r-19" value="O(n)" style="text;html=1;align=center;verticalAlign=middle;resizable=0;points=[];autosize=1;strokeColor=none;fillColor=#FF7D7D;" vertex="1" parent="1">
          <mxGeometry x="490" y="480" width="50" height="30" as="geometry" />
        </mxCell>
        <mxCell id="Znb4BWTXXF2_YyrvRS8r-20" value="" style="shape=curlyBracket;whiteSpace=wrap;html=1;rounded=1;flipH=1;labelPosition=right;verticalLabelPosition=middle;align=left;verticalAlign=middle;" vertex="1" parent="1">
          <mxGeometry x="464" y="548" width="20" height="82" as="geometry" />
        </mxCell>
        <mxCell id="Znb4BWTXXF2_YyrvRS8r-21" value="O(n)" style="text;html=1;align=center;verticalAlign=middle;resizable=0;points=[];autosize=1;strokeColor=none;fillColor=#FF7D7D;" vertex="1" parent="1">
          <mxGeometry x="490" y="570" width="50" height="30" as="geometry" />
        </mxCell>
        <mxCell id="Znb4BWTXXF2_YyrvRS8r-24" value="" style="shape=curlyBracket;whiteSpace=wrap;html=1;rounded=1;flipH=1;labelPosition=right;verticalLabelPosition=middle;align=left;verticalAlign=middle;" vertex="1" parent="1">
          <mxGeometry x="540" y="440" width="20" height="200" as="geometry" />
        </mxCell>
        <mxCell id="Znb4BWTXXF2_YyrvRS8r-25" value="O(n&lt;sup&gt;2&lt;/sup&gt;)" style="text;html=1;align=center;verticalAlign=middle;resizable=0;points=[];autosize=1;strokeColor=none;fillColor=#FF2119;" vertex="1" parent="1">
          <mxGeometry x="562" y="525" width="50" height="30" as="geometry" />
        </mxCell>
        <mxCell id="Znb4BWTXXF2_YyrvRS8r-26" value="O(1)" style="text;html=1;align=center;verticalAlign=middle;resizable=0;points=[];autosize=1;strokeColor=none;fillColor=#FF8B26;" vertex="1" parent="1">
          <mxGeometry x="434" y="698" width="50" height="30" as="geometry" />
        </mxCell>
        <mxCell id="Znb4BWTXXF2_YyrvRS8r-27" value="O(1)" style="text;html=1;align=center;verticalAlign=middle;resizable=0;points=[];autosize=1;strokeColor=none;fillColor=#FF8B26;" vertex="1" parent="1">
          <mxGeometry x="685.25" y="410" width="50" height="30" as="geometry" />
        </mxCell>
        <mxCell id="Znb4BWTXXF2_YyrvRS8r-28" value="O(1)" style="text;html=1;align=center;verticalAlign=middle;resizable=0;points=[];autosize=1;strokeColor=none;fillColor=#FF8B26;" vertex="1" parent="1">
          <mxGeometry x="440" y="405" width="50" height="30" as="geometry" />
        </mxCell>
        <mxCell id="Znb4BWTXXF2_YyrvRS8r-29" value="O(1)" style="text;html=1;align=center;verticalAlign=middle;resizable=0;points=[];autosize=1;strokeColor=none;fillColor=#FF8B26;" vertex="1" parent="1">
          <mxGeometry x="414" y="785" width="50" height="30" as="geometry" />
        </mxCell>
        <mxCell id="Znb4BWTXXF2_YyrvRS8r-30" value="O(1)" style="text;html=1;align=center;verticalAlign=middle;resizable=0;points=[];autosize=1;strokeColor=none;fillColor=#FF8B26;" vertex="1" parent="1">
          <mxGeometry x="739.38" y="535" width="50" height="30" as="geometry" />
        </mxCell>
        <mxCell id="Znb4BWTXXF2_YyrvRS8r-31" value="O(1)" style="text;html=1;align=center;verticalAlign=middle;resizable=0;points=[];autosize=1;strokeColor=none;fillColor=#FF8B26;" vertex="1" parent="1">
          <mxGeometry x="552.75" y="990" width="50" height="30" as="geometry" />
        </mxCell>
        <mxCell id="Znb4BWTXXF2_YyrvRS8r-32" value="O(1)" style="text;html=1;align=center;verticalAlign=middle;resizable=0;points=[];autosize=1;strokeColor=none;fillColor=#FF8B26;" vertex="1" parent="1">
          <mxGeometry x="716.5" y="775" width="50" height="30" as="geometry" />
        </mxCell>
        <mxCell id="Znb4BWTXXF2_YyrvRS8r-33" value="O(1)" style="text;html=1;align=center;verticalAlign=middle;resizable=0;points=[];autosize=1;strokeColor=none;fillColor=#FF8B26;" vertex="1" parent="1">
          <mxGeometry x="585" y="775" width="50" height="30" as="geometry" />
        </mxCell>
        <mxCell id="Znb4BWTXXF2_YyrvRS8r-34" value="O(1)" style="text;html=1;align=center;verticalAlign=middle;resizable=0;points=[];autosize=1;strokeColor=none;fillColor=#FF8B26;" vertex="1" parent="1">
          <mxGeometry x="689.38" y="640" width="50" height="30" as="geometry" />
        </mxCell>
        <mxCell id="Znb4BWTXXF2_YyrvRS8r-40" value="O(n)" style="text;html=1;align=center;verticalAlign=middle;resizable=0;points=[];autosize=1;strokeColor=none;fillColor=#FF7D7D;" vertex="1" parent="1">
          <mxGeometry x="716.5" y="305" width="50" height="30" as="geometry" />
        </mxCell>
        <mxCell id="Znb4BWTXXF2_YyrvRS8r-41" value="Загальна складність О(n&lt;sup&gt;3&lt;/sup&gt;)" style="text;html=1;align=center;verticalAlign=middle;resizable=0;points=[];autosize=1;strokeColor=none;fillColor=none;" vertex="1" parent="1">
          <mxGeometry x="490" y="50" width="170" height="30" as="geometry" />
        </mxCell>
      </root>
    </mxGraphModel>
  </diagram>
</mxfile>
